<?xml version="1.0" standalone="no"?>
<!DOCTYPE svg PUBLIC "-//W3C//DTD SVG 20010904//EN"
 "http://www.w3.org/TR/2001/REC-SVG-20010904/DTD/svg10.dtd">
<svg version="1.0" xmlns="http://www.w3.org/2000/svg"
 width="215.000000pt" height="66.000000pt" viewBox="0 0 215.000000 66.000000"
 preserveAspectRatio="xMidYMid meet">

<g transform="translate(0.000000,66.000000) scale(0.100000,-0.100000)"
fill="#000000" stroke="none">
<path d="M532 577 c-12 -7 -34 -30 -48 -50 -13 -20 -27 -37 -29 -37 -3 0 -19
9 -37 20 -36 22 -98 26 -130 9 -30 -16 -64 -109 -39 -109 5 0 11 13 14 30 15
72 82 90 158 42 63 -40 119 -129 119 -189 0 -18 -191 -18 -208 -1 -10 10 -15
10 -21 -1 -16 -25 -39 -4 -46 43 -4 25 -12 46 -17 46 -7 0 -8 -15 -4 -40 7
-44 3 -46 -34 -25 -38 22 -77 19 -91 -6 -6 -12 -9 -45 -7 -74 4 -51 4 -53 -27
-64 -17 -6 -44 -24 -60 -41 l-29 -30 20 -27 c46 -61 140 -81 214 -43 22 11 50
20 64 20 32 0 44 20 17 27 -16 4 -19 9 -11 23 13 24 13 106 0 131 -9 16 -7 19
13 19 14 0 30 -7 37 -15 16 -20 44 -20 36 0 -8 22 14 18 41 -7 25 -23 44 -18
23 7 -11 13 -4 15 60 15 61 0 71 -2 61 -14 -19 -23 4 -28 32 -6 35 28 127 29
127 2 0 -11 -20 -33 -45 -51 -53 -38 -51 -62 3 -29 l37 22 -23 -31 c-13 -18
-28 -35 -33 -39 -6 -4 -42 24 -80 62 -38 37 -72 65 -76 61 -4 -4 21 -36 55
-70 34 -34 62 -66 62 -70 0 -17 -46 -5 -71 19 -32 30 -61 24 -33 -7 17 -18 15
-19 -39 -19 -31 0 -59 4 -62 10 -4 6 -12 6 -23 1 -9 -5 -25 -12 -35 -15 -29
-9 -9 -26 30 -26 20 0 45 -7 55 -17 16 -14 18 -14 18 -1 0 12 18 17 88 22 48
3 95 6 105 7 9 0 17 4 17 9 0 5 12 21 26 37 14 15 35 48 48 74 21 44 21 48 5
68 -10 11 -22 21 -27 21 -7 0 -9 27 -5 73 4 58 1 83 -16 129 -20 52 -45 87
-56 77 -2 -3 8 -29 22 -58 30 -60 40 -142 23 -186 -9 -23 -13 -26 -20 -15 -8
12 -13 13 -30 3 -11 -7 -36 -13 -55 -13 -31 0 -35 3 -35 25 0 34 -24 91 -57
133 -26 35 -26 35 -8 68 25 47 60 67 102 61 24 -4 33 -2 30 6 -5 17 -67 19
-95 4z m-331 -277 c11 0 11 -11 -1 -30 -8 -13 -11 -12 -24 5 -20 26 -20 39 0
31 9 -3 20 -6 25 -6z m-38 -40 l18 -30 -25 0 c-22 0 -26 4 -26 30 0 17 4 30 8
30 4 0 16 -13 25 -30z m96 -43 c-15 -33 -26 -34 -40 -3 -8 17 -8 29 1 46 12
22 12 22 32 3 16 -17 17 -23 7 -46z m-51 -27 c15 -25 8 -40 -20 -40 -21 0 -47
26 -48 48 0 20 54 14 68 -8z m82 -30 c0 -22 -4 -40 -9 -40 -14 0 -23 37 -16
60 11 34 25 22 25 -20z m-134 -26 c13 -14 24 -26 24 -28 0 -10 -57 9 -67 22
-32 39 8 45 43 6z m-66 -9 c11 -13 8 -15 -20 -15 -28 0 -31 2 -20 15 7 8 16
15 20 15 4 0 13 -7 20 -15z m158 3 c21 -21 13 -27 -18 -17 -16 6 -27 15 -24
20 7 13 28 11 42 -3z m-138 -45 c0 -5 -6 -16 -14 -25 -11 -16 -15 -16 -34 -2
-32 22 -27 34 13 34 19 0 35 -3 35 -7z m67 1 c21 -6 21 -7 6 -30 -10 -16 -25
-24 -44 -24 -33 0 -35 6 -13 38 17 24 18 25 51 16z m63 -24 c-32 -25 -43 -25
-30 0 6 11 21 20 33 20 22 0 22 -1 -3 -20z"/>
<path d="M620 460 c0 -5 5 -10 10 -10 6 0 10 5 10 10 0 6 -4 10 -10 10 -5 0
-10 -4 -10 -10z"/>
<path d="M390 430 c0 -5 5 -10 10 -10 6 0 10 5 10 10 0 6 -4 10 -10 10 -5 0
-10 -4 -10 -10z"/>
<path d="M650 410 c0 -5 5 -10 10 -10 6 0 10 5 10 10 0 6 -4 10 -10 10 -5 0
-10 -4 -10 -10z"/>
<path d="M440 400 c0 -5 5 -10 10 -10 6 0 10 5 10 10 0 6 -4 10 -10 10 -5 0
-10 -4 -10 -10z"/>
<path d="M337 212 c-8 -11 40 -58 50 -48 4 3 -5 18 -19 32 -14 14 -28 22 -31
16z"/>
<path d="M624 197 c-35 -30 -16 -45 20 -16 26 21 34 39 17 39 -6 0 -22 -11
-37 -23z"/>
<path d="M425 168 c-22 -16 -48 -36 -59 -43 -10 -7 -15 -18 -11 -24 7 -12 126
67 133 88 7 20 -22 10 -63 -21z"/>
<path d="M497 172 c-15 -9 -27 -22 -27 -29 0 -19 11 -16 44 10 35 28 22 42
-17 19z"/>
<path d="M1326 116 c6 -16 -10 -23 -19 -8 -2 4 -3 2 -1 -4 1 -6 -2 -16 -8 -22
-16 -16 0 -31 31 -29 18 1 27 7 24 15 -3 6 -9 12 -15 12 -5 0 -7 9 -3 19 3 11
1 22 -4 26 -7 3 -8 0 -5 -9z m4 -46 c0 -5 -7 -10 -15 -10 -8 0 -15 5 -15 10 0
6 7 10 15 10 8 0 15 -4 15 -10z"/>
<path d="M1438 119 c-10 -5 -18 -18 -18 -28 0 -41 62 -56 68 -16 2 18 2 19 -8
3 -13 -22 -39 -23 -46 -3 -9 23 15 46 40 40 17 -5 18 -4 6 4 -18 13 -21 13
-42 0z"/>
<path d="M1627 119 c-23 -13 -22 -56 2 -64 28 -9 51 5 51 31 0 29 -28 46 -53
33z m41 -33 c-2 -13 -10 -21 -23 -21 -23 0 -33 34 -14 45 20 13 40 -1 37 -24z"/>
<path d="M1728 119 c-21 -12 -23 -40 -6 -57 14 -14 48 -16 48 -3 0 5 -9 7 -20
4 -13 -3 -22 1 -26 11 -8 20 15 49 33 42 8 -3 11 -1 8 4 -8 12 -15 12 -37 -1z"/>
<path d="M881 83 c1 -25 3 -30 6 -15 4 22 6 23 23 7 16 -15 18 -15 25 2 7 16
9 15 15 -7 7 -21 8 -19 9 15 l1 40 -19 -24 -19 -24 -13 21 c-20 32 -29 27 -28
-15z"/>
<path d="M1005 89 c-9 -17 -14 -33 -11 -37 3 -3 6 0 6 6 0 7 11 12 25 12 14 0
25 -5 25 -12 0 -6 2 -9 5 -6 7 7 -15 68 -26 68 -5 0 -16 -14 -24 -31z m29 6
c3 -9 0 -15 -9 -15 -9 0 -12 6 -9 15 4 8 7 15 9 15 2 0 5 -7 9 -15z"/>
<path d="M1090 83 c0 -28 3 -34 10 -23 7 12 13 13 28 4 16 -10 18 -8 17 19 0
18 -6 32 -15 34 -12 4 -13 3 -1 -5 16 -12 6 -32 -16 -32 -10 0 -14 6 -10 20 3
11 1 20 -4 20 -5 0 -9 -17 -9 -37z"/>
<path d="M1190 85 c0 -19 5 -35 10 -35 6 0 10 16 10 35 0 19 -4 35 -10 35 -5
0 -10 -16 -10 -35z"/>
<path d="M1520 83 c0 -28 3 -34 10 -23 7 12 13 12 27 4 16 -10 18 -7 20 22 2
27 -1 34 -15 34 -13 0 -14 -2 -3 -9 16 -11 6 -31 -16 -31 -10 0 -14 6 -10 20
3 11 1 20 -4 20 -5 0 -9 -17 -9 -37z"/>
<path d="M1800 85 c0 -33 2 -35 33 -34 21 1 25 3 12 6 -33 8 -42 23 -14 24
l24 0 -23 10 c-13 5 -20 13 -17 19 3 5 1 10 -4 10 -6 0 -11 -16 -11 -35z"/>
<path d="M1892 85 c0 -22 2 -34 5 -27 6 14 33 16 33 2 0 -5 3 -10 8 -10 14 0
7 63 -8 67 -12 4 -13 3 -1 -5 16 -11 7 -32 -14 -32 -7 0 -16 10 -18 23 -2 12
-5 4 -5 -18z"/>
<path d="M1974 112 c4 -6 13 -23 20 -36 12 -23 12 -23 23 13 9 29 9 33 -1 19
-12 -16 -14 -16 -31 0 -10 9 -15 11 -11 4z"/>
</g>
</svg>
